<svg width="104" height="52" viewBox="0 0 104 52" fill="none" xmlns="http://www.w3.org/2000/svg">
<path fill-rule="evenodd" clip-rule="evenodd" d="M20 0L40 20L34 26L40 32L20 52L0 32L6 26L0 20L20 0ZM34.3431 20L31.1716 23.1716L20 12L8.82843 23.1716L5.65685 20L20 5.65685L34.3431 20ZM20 17.6569L11.6569 26L20 34.3431L28.3431 26L20 17.6569ZM20 40L8.82843 28.8284L5.65685 32L20 46.3431L34.3431 32L31.1716 28.8284L20 40Z" fill="#D8EA0D"/>
<path d="M56.5955 11.5688C56.5955 12.9875 55.4397 14.1376 54.0141 14.1376C52.5884 14.1376 51.4326 12.9875 51.4326 11.5688C51.4326 10.1501 52.5884 9 54.0141 9C55.4397 9 56.5955 10.1501 56.5955 11.5688Z" fill="white"/>
<path d="M78.5377 36.5563C77.3276 36.5563 76.1909 36.3313 75.1275 35.8813C74.0642 35.4191 73.1291 34.7927 72.3224 34.0021C71.528 33.1993 70.8985 32.2689 70.434 31.2107C69.9818 30.1525 69.7557 29.0214 69.7557 27.8172V22.0155H67.3172V17.0531H69.7557V9.24447H74.7425V17.0531H82.3328V22.0155H74.7425V27.8172C74.7425 28.3403 74.8403 28.8328 75.0359 29.295C75.2314 29.7451 75.5003 30.1404 75.8426 30.4809C76.1848 30.8215 76.5882 31.0951 77.0526 31.3019C77.5171 31.4965 78.0121 31.5938 78.5377 31.5938H82.3328V36.5563H78.5377Z" fill="white"/>
<path d="M44 38.9828V44H46.5484C47.4651 44 48.3513 43.8784 49.2069 43.6351C50.0502 43.404 50.8386 43.0695 51.572 42.6317C52.3175 42.206 52.9959 41.689 53.607 41.0809C54.2182 40.4849 54.7438 39.816 55.1838 39.074C55.6238 38.3442 55.9599 37.5537 56.1921 36.7023C56.4366 35.8508 56.5649 34.969 56.5772 34.0568H56.6138V17.0166H51.4986V34.0568C51.4986 34.7136 51.3764 35.34 51.1319 35.936C50.8875 36.532 50.5514 37.055 50.1236 37.505C49.708 37.9672 49.213 38.3321 48.6385 38.5997C48.064 38.8794 47.4407 39.0193 46.7684 39.0193L44 38.9828Z" fill="white"/>
<path d="M59.881 36.5563H64.9228V17.0166H59.881V36.5563Z" fill="white"/>
<path fill-rule="evenodd" clip-rule="evenodd" d="M103.212 30.6999C103.737 29.4349 104 28.0727 104 26.6131C104 25.0563 103.737 23.6454 103.212 22.3804C102.686 21.1033 101.971 20.0147 101.067 19.1147C100.162 18.2025 99.0987 17.5031 97.8764 17.0166C96.6664 16.5179 95.3647 16.2686 93.9713 16.2686C92.5901 16.2686 91.2884 16.5301 90.0661 17.0531C88.8561 17.5761 87.7927 18.2998 86.876 19.2241C85.9715 20.1364 85.2565 21.2249 84.7309 22.4899C84.2053 23.7548 83.9426 25.1292 83.9426 26.6131C83.9426 28.0727 84.2053 29.4349 84.7309 30.6999C85.2565 31.9526 85.9715 33.0412 86.876 33.9656C87.7927 34.8778 88.8561 35.6015 90.0661 36.1367C91.2884 36.6597 92.5901 36.9212 93.9713 36.9212C95.3647 36.9212 96.6664 36.6597 97.8764 36.1367C99.0987 35.6015 100.162 34.8778 101.067 33.9656C101.971 33.0412 102.686 31.9526 103.212 30.6999ZM98.5548 24.442C98.8237 25.0867 98.9581 25.8104 98.9581 26.6131C98.9581 27.4037 98.8237 28.1274 98.5548 28.7842C98.2981 29.441 97.9437 30.0005 97.4914 30.4627C97.0392 30.9249 96.5075 31.2837 95.8964 31.5391C95.2974 31.7945 94.6557 31.9222 93.9713 31.9222C93.2868 31.9222 92.639 31.7884 92.0279 31.5209C91.429 31.2411 90.9034 30.8641 90.4511 30.3897C90.0111 29.9153 89.6628 29.3559 89.4061 28.7112C89.1494 28.0666 89.0211 27.3672 89.0211 26.6131C89.0211 25.8104 89.1494 25.0867 89.4061 24.442C89.6628 23.7852 90.0111 23.2257 90.4511 22.7636C90.9034 22.2892 91.429 21.9304 92.0279 21.6871C92.639 21.4317 93.2868 21.304 93.9713 21.304C94.6557 21.304 95.2974 21.4317 95.8964 21.6871C96.5075 21.9304 97.0392 22.2892 97.4914 22.7636C97.9437 23.2257 98.2981 23.7852 98.5548 24.442Z" fill="white"/>
<path d="M62.4037 14.1376C63.8294 14.1376 64.9851 12.9875 64.9851 11.5688C64.9851 10.1501 63.8294 9 62.4037 9C60.978 9 59.8223 10.1501 59.8223 11.5688C59.8223 12.9875 60.978 14.1376 62.4037 14.1376Z" fill="white"/>
</svg>
